<svg xmlns="http://www.w3.org/2000/svg" viewBox="0 0 90.82 81.348">
  <path id="Tracé_32" data-name="Tracé 32" d="M9.766-38.818c0,2.1,1.66,3.369,3.76,3.369a4.6,4.6,0,0,0,3.125-1.465L53.955-70.9a1.636,1.636,0,0,1,1.221-.537,1.924,1.924,0,0,1,1.318.537L93.7-36.914a4.612,4.612,0,0,0,3.174,1.465,3.4,3.4,0,0,0,3.711-3.369,3.629,3.629,0,0,0-1.318-2.93L85.5-54.3V-76.416a2.82,2.82,0,0,0-3.027-3.027H76.758a2.9,2.9,0,0,0-3.125,3.027v11.377l-13.574-12.4a7.217,7.217,0,0,0-4.883-2,7.309,7.309,0,0,0-4.883,2L11.084-41.748A3.781,3.781,0,0,0,9.766-38.818ZM21.094-6.934c0,5.566,3.369,8.838,9.033,8.838H45.459V-25.391a2.9,2.9,0,0,1,3.125-3.027H61.865a2.858,2.858,0,0,1,3.076,3.027V1.9H80.225c5.664,0,9.033-3.271,9.033-8.838V-33.691L56.2-63.525a1.6,1.6,0,0,0-1.074-.439,1.539,1.539,0,0,0-1.074.488L21.094-33.643Z" transform="translate(-9.766 79.443)"/>
</svg>
