<svg xmlns="http://www.w3.org/2000/svg" viewBox="0 0 67.236 85.645">
  <path id="Tracé_33" data-name="Tracé 33" d="M43.408-24.9a2.691,2.691,0,0,0,2.686-2.588V-67.773l-.244-5.615,3.027,3.125,6.152,6.445a2.522,2.522,0,0,0,1.855.83,2.377,2.377,0,0,0,2.441-2.393,2.364,2.364,0,0,0-.781-1.758L45.361-79.98a2.548,2.548,0,0,0-1.953-.879,2.548,2.548,0,0,0-1.953.879L28.223-67.139a2.364,2.364,0,0,0-.781,1.758,2.348,2.348,0,0,0,2.441,2.393,2.6,2.6,0,0,0,1.856-.83l6.152-6.445,3.027-3.174-.2,5.664V-27.49A2.659,2.659,0,0,0,43.408-24.9ZM21.387,4.785H65.332C73.1,4.785,77,.928,77-6.689V-45.361c0-7.568-3.906-11.475-11.67-11.475H54.59v5.42H65.234c4,0,6.348,2.148,6.348,6.348V-6.982c0,4.2-2.344,6.348-6.348,6.348H21.484c-4.053,0-6.3-2.148-6.3-6.348V-45.068c0-4.2,2.246-6.348,6.3-6.348H32.227v-5.42H21.387c-7.715,0-11.621,3.857-11.621,11.475V-6.689C9.766.928,13.672,4.785,21.387,4.785Z" transform="translate(-9.766 80.859)"/>
</svg>
