<svg xmlns="http://www.w3.org/2000/svg" viewBox="0 0 498.485 344.454">
  <g id="random" transform="translate(0 -103.337)">
    <path id="Tracé_1" data-name="Tracé 1" d="M436.152,378.9H379.525c-19.792,0-38.67-8.208-53.137-23.143l-77.7-80.179,77.73-80.208c14.452-14.935,33.331-23.143,53.137-23.143h56.621v34.446L498.485,155l-62.309-51.668v34.446H379.555c-27.732,0-54.157,11.5-74.4,32.427L125.384,355.723c-14.5,14.935-33.346,23.177-53.107,23.177H.032v34.378l72.123.034h.137c27.656,0,54.05-11.5,74.344-32.427l79.225-81.752,79.26,81.785c20.263,20.923,46.687,32.427,74.4,32.427h56.627v34.446l62.309-51.666-62.309-51.671s0,34.446,0,34.446Z" transform="translate(0)"/>
    <path id="Tracé_2" data-name="Tracé 2" d="M79.908,172.26A85.685,85.685,0,0,1,138.573,195.4l60.652,56.609,25.237-23.553-62.376-58.217a119.987,119.987,0,0,0-82.161-32.427h-.151L0,137.848v34.378H79.79c.051,0,.084.034.118.034Z"/>
  </g>
</svg>
